<svg xmlns="http://www.w3.org/2000/svg" xmlns:xlink="http://www.w3.org/1999/xlink" width="500" zoomAndPan="magnify" viewBox="0 0 375 374.999991" height="500" preserveAspectRatio="xMidYMid meet" version="1.0"><defs><g/></defs><g fill="#fff" fill-opacity="1"><g transform="translate(90.394811, 273.277992)"><g><path d="M 98.40625 -34 L 107.703125 -7.5 C 103.828125 -4.3125 98.957031 -1.8125 93.09375 0 C 87.238281 1.8125 80.601562 2.71875 73.1875 2.71875 C 57.757812 2.71875 46.035156 -1.484375 38.015625 -9.890625 C 29.992188 -18.296875 25.984375 -30.515625 25.984375 -46.546875 L 25.984375 -114.296875 L 4.265625 -114.296875 L 4.265625 -142.75 L 25.984375 -142.75 L 25.984375 -170.546875 L 61.8125 -176.375 L 61.8125 -142.75 L 102.28125 -142.75 L 102.28125 -114.296875 L 61.8125 -114.296875 L 61.8125 -49.140625 C 61.8125 -42.066406 63.273438 -36.910156 66.203125 -33.671875 C 69.128906 -30.441406 73.394531 -28.828125 79 -28.828125 C 85.382812 -28.828125 90.945312 -30.550781 95.6875 -34 Z M 98.40625 -34 "/></g></g><g transform="translate(201.209548, 273.277992)"><g><path d="M 38.40625 -159.6875 C 31.9375 -159.6875 26.675781 -161.644531 22.625 -165.5625 C 18.570312 -169.488281 16.546875 -174.554688 16.546875 -180.765625 C 16.546875 -186.890625 18.570312 -191.910156 22.625 -195.828125 C 26.675781 -199.753906 31.9375 -201.71875 38.40625 -201.71875 C 42.71875 -201.71875 46.550781 -200.8125 49.90625 -199 C 53.269531 -197.1875 55.878906 -194.707031 57.734375 -191.5625 C 59.585938 -188.414062 60.515625 -184.816406 60.515625 -180.765625 C 60.515625 -176.710938 59.585938 -173.09375 57.734375 -169.90625 C 55.878906 -166.71875 53.269531 -164.21875 49.90625 -162.40625 C 46.550781 -160.59375 42.71875 -159.6875 38.40625 -159.6875 Z M 11.125 60.515625 C 0.601562 60.515625 -7.84375 59.132812 -14.21875 56.375 L -9.828125 28.1875 L -7.375 27.40625 C -3.925781 29.050781 0.125 29.875 4.78125 29.875 C 15.300781 29.875 20.5625 23.664062 20.5625 11.25 L 20.5625 -142.625 L 56.375 -142.625 L 56.375 10.21875 C 56.375 26.851562 52.535156 39.394531 44.859375 47.84375 C 37.191406 56.289062 25.945312 60.515625 11.125 60.515625 Z M 11.125 60.515625 "/></g></g></g></svg>